<?xml version="1.0" encoding="UTF-8" standalone="no"?>
<svg width="256" height="256" fill="none" viewBox="0 0 256 256" version="1.1" id="svg10" sodipodi:docname="NoDarkReader.svg" inkscape:version="1.1.2 (0a00cf5339, 2022-02-04, custom)" xmlns:inkscape="http://www.inkscape.org/namespaces/inkscape" xmlns:sodipodi="http://sodipodi.sourceforge.net/DTD/sodipodi-0.dtd" xmlns="http://www.w3.org/2000/svg" xmlns:svg="http://www.w3.org/2000/svg" data-darkreader-mode="static">
  <head xmlns=""><style id="dark-reader-style">html,
body,
:not([style*="background-color:"]), .bg_white {
    background-color: rgb(26, 23, 36) !important;
}
html,
body,
:not([style*="color:"]),
.sr-reader *:not([class*='sr-pivot']) {
    color: rgb(224, 222, 245) !important;
}
h1:not([style*="color:"]),
h2:not([style*="color:"]),
h3:not([style*="color:"]),
h4:not([style*="color:"]),
h5:not([style*="color:"]),
h6:not([style*="color:"]) {
    color: rgb(235, 189, 186) !important;
}
cite:not([style*="color:"]) {
    color: rgb(156, 207, 217) !important;
}
input:not([style*="background-color:"]),
textarea:not([style*="background-color:"]),
button:not([style*="background-color:"]),
[role="button"] {
    background-color: rgb(31, 28, 46) !important;
}
input:not([style*="background-color:"]):hover,
textarea:not([style*="background-color:"]):hover,
button:not([style*="background-color:"]):hover,
[role="button"]:hover {
    background-color: rgb(38, 36, 59) !important;
}
input:not([style*="background-color:"]):active, input:not([style*="background-color:"]):focus,
textarea:not([style*="background-color:"]):active, textarea:not([style*="background-color:"]):focus,
button:not([style*="background-color:"]):active, button:not([style*="background-color:"]):focus,
[role="button"]:active, [role="button"]:focus {
    background-color: rgb(38, 36, 59) !important;
}
a:not([style*="color:"]) {
    color: rgb(48, 115, 143) !important;
}
a:not([style*="color:"]):hover {
    color: rgb(156, 207, 217) !important;
}
a:not([style*="color:"]):active, a:not([style*="color:"]):focus {
    color: rgb(156, 207, 217) !important;
}
:not([style*="border-color:"]),
::before,
::after {
    border-color: rgb(38, 36, 59) !important;
}
div:empty,
.sr-reader *,
.sr-backdrop {
    background-color: rgba(26, 23, 36, 0.5) !important;
}
input::placeholder,
textarea::placeholder {
    color: rgba(196, 166, 232, 0.5) !important;
}
input:not([style*="background-image:"]),
textarea:not([style*="background-image:"]) {
    background-image: none !important;
}

/* Font */
*:not(pre, pre *, code, .far, .fa, .glyphicon, [class*="vjs-"], .fab, .fa-github, .fas, .material-icons, .icofont, .typcn, mu, [class*="mu-"], .glyphicon, .icon) {
  font-family: Cartograph CF !important;
}</style></head><defs id="defs14">
    <linearGradient x1="149.3738" y1="148.5701" x2="148.4455" y2="224.6907" id="gradient1543" gradientUnits="userSpaceOnUse">
      <stop offset="0%" stop-color="rgb(20,30,36)" id="stop909"/>
      <stop offset="100%" stop-color="rgb(233,108,76)" id="stop911"/>
    </linearGradient>
    <linearGradient x1="269.2113" y1="153.2718" x2="270.1425" y2="224.9721" id="gradient1544" gradientUnits="userSpaceOnUse">
      <stop offset="0%" stop-color="rgb(20,30,36)" id="stop914"/>
      <stop offset="100%" stop-color="rgb(233,108,76)" id="stop916"/>
    </linearGradient>
  </defs>
  <sodipodi:namedview id="namedview12" pagecolor="#ffffff" bordercolor="#666666" borderopacity="1.0" inkscape:pageshadow="2" inkscape:pageopacity="0.0" inkscape:pagecheckerboard="0" showgrid="false" inkscape:zoom="0.60283615" inkscape:cx="42.300051" inkscape:cy="165.88255" inkscape:window-width="1211" inkscape:window-height="686" inkscape:window-x="90" inkscape:window-y="730" inkscape:window-maximized="1" inkscape:current-layer="svg10"/>
  <rect width="256" height="256" fill="#242938" rx="60" id="rect2" style="fill:#141e24;fill-opacity:1"/>
  <g id="g1821" transform="translate(2.4351302,4.4843096)">
    <g id="g1030" transform="matrix(0.46826387,0,0,0.46826387,9.0088597,13.103664)">
      <g id="g923">
        <path d="m 186.8351,263.8178 c 45.718,2.0863 88.4442,16.3808 110.1545,47.1807 15.1121,21.4392 18.9371,48.2869 8.7773,70.7027 C 291.6928,412.7534 253.1298,430 206.2735,430 H 71 c -22.9699,0 -41.2199,-16.5166 -48.1346,-39.922 -4.1247,-13.9616 -3.5558,-29.3509 1.1984,-43.7299 4.5523,-13.7682 12.1693,-25.9912 23.533,-36.9336 30.7159,-29.5773 84.81,-48.0806 139.2383,-45.5967 z" fill="#141e24" opacity="1" id="path921"/>
      </g>
      <g id="g931">
        <path d="m 58.4051,303.113 c -7.1747,8.5242 -13.0629,17.8877 -17.6682,27.9039 -6.2382,13.5679 -10.1946,27.9502 -10.0185,42.4976 0.15,12.3911 3.3018,24.6172 8.3223,36.2281 1.6004,3.7013 3.3861,7.3239 5.546,10.7475 -3.8611,-2.2287 -7.1218,-5.2142 -10.0502,-8.4954 C 26.3395,402.81 21.1871,391.466 20.0164,379.352 19.3945,372.9162 19.9042,366.3608 20.9893,359.8938 23.084,347.41 27.059,335.4307 33.9265,325.1795 40.067,316.0137 48.3642,308.4422 58.4051,303.113 Z" fill="#316e7d" opacity="1" id="path925"/>
        <path d="m 160.5305,397.4492 c 2.6898,2.1956 2.8518,7.3759 5.6376,9.5296 2.5562,1.9761 6.5311,1.545 9.6045,-0.9559 2.0757,-1.689 3.3892,-4.2478 3.8582,-7.0869 0.2624,-1.5882 0.2504,-3.2224 -0.1825,-4.8158 1.4364,1.4208 2.5315,3.1365 3.349,4.9456 1.1914,2.6364 1.6723,5.5291 3.4542,6.9571 1.4302,1.146 3.5458,1.3466 5.6376,0.9559 2.1952,-0.4101 4.2124,-1.4253 5.5575,-3.147 2.1489,-2.7504 2.3966,-6.9507 1.126,-11.2603 2.4904,2.4395 4.8462,5.0701 6.7562,7.8822 1.201,1.7681 2.1624,3.5906 3.7076,4.6198 2.9679,1.9766 7.2048,1.2336 9.5008,-1.8902 1.9396,-2.6389 2.0283,-6.4842 0.9617,-10.5862 -2.1851,-8.4035 -8.8836,-16.523 -17.5482,-21.4203 -10.4169,-5.8876 -22.8872,-7.4479 -35.7888,-7.0692 -6.5232,0.1915 -12.9887,0.8582 -19.0526,2.8579 -8.6818,2.8631 -16.2373,8.2372 -21.7289,15.4717 -4.5362,5.9759 -7.4375,12.6272 -5.6301,18.0165 2.0276,6.0461 8.6664,9.2914 15.7644,6.7562 9.9415,-9.2775 20.3878,-13.5386 25.0158,-9.7607 z" fill="#8bbcc7" opacity="1" id="path927"/>
        <path d="m 149.0272,377.9331 c 4.0327,1.6844 6.8093,5.6831 9.0082,10.1343 1.5285,3.0939 2.7375,6.3465 3.4475,9.7663 -3.056,1.2244 -5.9345,2.8621 -8.5737,4.7632 -2.2332,1.6085 -4.2563,3.4919 -6.6684,4.7631 -3.6297,1.9129 -8.0226,2.4624 -12.4648,2.4582 -4.8092,-0.005 -9.4555,-0.6475 -12.3017,-3.3674 -2.5283,-2.416 -3.5041,-6.2286 -2.8595,-9.9542 0.7802,-4.51 3.9803,-8.4796 7.8917,-11.8073 7.3477,-6.2515 16.0374,-9.4642 22.5207,-6.7562 z" fill="#316e7d" opacity="1" id="path929"/>
      </g>
      <g id="g947">
        <path d="M 61.0823,299.2955 76.4669,185.7434 c 3.0329,-22.3858 5.9066,-44.1692 13.9853,-63.9687 7.3676,-18.0565 18.7754,-34.0718 34.2958,-44.5346 17.7669,-11.9773 40.3039,-16.0957 63.3078,-16.4787 23.584,-0.3926 46.8155,3.2611 64.2392,15.1811 12.1928,8.3415 21.142,20.4947 27.5965,34.2072 9.9093,21.0519 13.3213,45.1284 11.1013,69.7563 l -11.0517,122.6002 c -30.9013,5.1948 -62.0894,7.4982 -93.3676,7.5686 -41.8403,0.0942 -83.8284,-3.92 -125.4912,-10.7793 z" fill="#141e24" opacity="1" id="path933"/>
        <path d="m 133.306,72.4959 c -7.7007,10.0422 -13.5981,21.1625 -18.3891,33.3051 -8.5487,21.6663 -12.9195,46.8769 -20.0277,71.4993 L 62.2824,290.2496 77.3827,175.0785 c 3.9056,-29.788 11.5901,-58.1092 26.5039,-78.2514 7.8884,-10.6541 17.5506,-18.9624 29.4194,-24.3312 z" fill="#316e7d" opacity="1" id="path935"/>
        <path d="m 210.776,62.5949 c -19.2885,-0.7009 -38.2706,5.1335 -52.0895,17.5908 -13.2315,11.9277 -20.8232,29.533 -26.5434,48.079 -6.5704,21.3024 -9.8899,43.3572 -11.1328,65.9014 l 47.6342,8.5896 c 9.9623,-13.6467 24.0052,-21.3798 39.681,-21.5148 16.8681,-0.1453 31.9853,8.4778 43.0876,23.249 l 39.3379,-14.1928 c 2.272,-20.0999 1.5608,-40.0055 -3.1781,-59.1888 C 283.4218,114.3042 276.6,98.4318 265.2989,86.451 251.3188,71.6299 231.5392,63.3494 210.776,62.5949 Z" fill="#316e7d" opacity="1" id="path937"/>
        <path d="m 220.6147,281.6661 -0.4221,7.8163 c -0.1774,3.284 -3.0433,5.3924 -6.5923,5.6203 -3.7401,0.2403 -6.7502,-1.5707 -6.5922,-4.4963 l 0.4222,-7.8162 c 0.2109,-3.9051 3.0455,-6.5187 6.5922,-6.7445 3.741,-0.2381 6.7825,2.0959 6.5922,5.6204 z" fill="#316e7d" opacity="1" id="path939"/>
        <path d="m 197.8578,281.864 -0.4221,7.8162 c -0.1774,3.2841 -3.0432,5.3925 -6.5922,5.6204 -3.7401,0.2403 -6.7502,-1.5707 -6.5922,-4.4963 l 0.4221,-7.8162 c 0.2109,-3.9051 3.0455,-6.5187 6.5922,-6.7445 3.7411,-0.2381 6.7826,2.0959 6.5922,5.6204 z" fill="#316e7d" opacity="1" id="path941"/>
        <path d="m 175.0821,281.0806 -0.3937,5.9382 c -0.2416,3.6426 -3.2797,5.9818 -7.0073,6.0296 -3.5464,0.0454 -6.3755,-1.9141 -6.1772,-4.9056 l 0.3938,-5.9382 c 0.2589,-3.9047 3.0777,-6.5042 6.5922,-6.7444 3.772,-0.2579 6.8259,2.0961 6.5922,5.6204 z" fill="#316e7d" opacity="1" id="path943"/>
        <path d="m 242.1463,281.0046 -0.3937,5.9382 c -0.2416,3.6426 -3.2797,5.9818 -7.0073,6.0296 -3.5464,0.0455 -6.3755,-1.9141 -6.1771,-4.9055 l 0.3937,-5.9382 c 0.2589,-3.9048 3.0777,-6.5042 6.5922,-6.7445 3.7721,-0.2578 6.8259,2.0962 6.5922,5.6204 z" fill="#316e7d" opacity="1" id="path945"/>
      </g>
      <g id="g971">
        <path d="m 188.4925,168.79 c 5.7086,-2.2902 11.7014,-3.4519 17.7369,-3.5179 6.5402,-0.0714 13.0513,1.1448 19.3084,3.5002 13.6834,-17.1577 34.0163,-23.4796 53.6051,-20.0052 27.6492,4.904 47.8015,26.5123 49.2051,52.4363 1.5148,27.9757 -18.4066,52.4544 -47.6724,57.4016 -19.0267,3.2163 -38.963,-3.4739 -51.5641,-18.4853 -9.7543,-11.62 -14.0147,-27.1862 -9.9056,-43.2045 -2.4522,-1.0863 -5.0579,-1.6328 -7.6997,-1.7413 -3.5725,-0.1467 -7.1931,0.5272 -10.7012,1.759 2.9667,19.4803 -4.173,37.2599 -17.5893,49.25 -16.882,15.0873 -40.6513,19.1814 -61.5625,10.5535 -18.4867,-7.6275 -32.0421,-24.2525 -35.1786,-43.9732 -2.9516,-18.5581 3.8152,-37.6171 17.5893,-51.0089 13.6056,-13.2279 32.6041,-19.317 51.0089,-15.8304 13.5196,2.5611 25.6946,10.2715 33.4197,22.8661 z" fill="#e96c4c" opacity="0.2" id="path949"/>
        <path d="m 186.7336,174.0668 c 6.7215,-3.3376 13.9395,-5.0887 21.2548,-5.2768 7.9975,-0.2057 15.9627,1.4592 23.5229,4.7454 12.2082,-17.1912 31.5662,-23.833 50.1372,-20.0044 23.2548,4.7941 40.1403,23.9767 41.835,46.6995 2.0266,27.1734 -16.7935,50.723 -44.7537,54.4829 -16.3848,2.2032 -33.4902,-3.8075 -44.7538,-16.5395 -10.5129,-11.8835 -14.681,-28.3336 -10.0069,-45.0692 -3.9075,-2.0585 -8.1572,-3.0876 -12.4629,-3.2076 -5.4119,-0.1507 -10.8346,1.1497 -15.978,3.5179 3.8703,19.2713 -2.5558,37.2735 -15.8303,49.25 -14.8931,13.4368 -35.8727,17.5834 -54.5269,10.5536 -17.4071,-6.5599 -30.2431,-21.9762 -33.4196,-40.4554 -2.9759,-17.3123 3.0163,-35.1734 15.8304,-47.4911 12.1365,-11.6663 29.1219,-16.9729 45.7321,-14.0714 13.55,2.3669 25.738,10.1808 33.4197,22.8661 z" fill="#e96c4c" opacity="0.2" id="path951"/>
        <path d="m 276.4095,158.0195 c 24.215,1.8248 43.1496,22.6893 42.1734,47.6742 -0.907,23.2124 -19.1479,42.1827 -42.1734,44.007 -25.6965,2.0359 -47.5244,-17.1597 -49.5078,-42.1734 -2.2689,-28.6133 20.9167,-51.8253 49.5078,-49.5078 z" fill="#ffffff" opacity="1" id="path953"/>
        <path d="m 143.9601,155.4356 c 26.9413,-0.0534 48.5013,22.0758 47.491,49.25 -0.9454,25.4296 -21.8409,45.7321 -47.491,45.7321 -25.6501,0 -46.5457,-20.3025 -47.4911,-45.7321 -1.0103,-27.1742 20.5497,-49.3034 47.4911,-49.25 z" fill="#ffffff" opacity="1" id="path955"/>
        <path d="m 209.7797,177.4175 c 9.9926,-0.0677 19.7927,2.7724 28.5733,8.3507 l -3.9344,11.8032 c -7.0733,-4.8284 -15.0677,-7.4417 -23.2965,-7.7259 -8.8458,-0.3056 -17.5899,2.0857 -25.579,6.774 l -5.6933,-9.8359 c 9.1878,-6.0201 19.4235,-9.2949 29.9299,-9.3661 z" fill="#ffffff" opacity="1" id="path957"/>
        <path d="m 144.167,167.8835 c 19.2987,0.005 35.2231,14.0424 36.9222,31.8874 2.1359,22.4325 -16.8843,40.6771 -40.2788,38.6005 -20.1104,-1.7851 -35.4372,-18.8826 -33.5657,-38.6005 1.7077,-17.991 17.6904,-31.9149 36.9223,-31.8874 z" fill="url(#gradient1543)" opacity="1" id="path959" style="fill:url(#gradient1543)"/>
        <path d="m 276.646,170.8911 c 18.3528,1.6774 32.5347,17.0246 31.5893,35.0993 -0.8637,16.514 -14.5184,29.9538 -31.5893,31.5894 -20.4289,1.9574 -37.6191,-12.6347 -38.6093,-31.5894 -1.0812,-20.696 16.8537,-37.2541 38.6093,-35.0993 z" fill="url(#gradient1544)" opacity="1" id="path961" style="fill:url(#gradient1544)"/>
        <path d="m 161.1069,185.9335 c 7.3907,-0.249 14.3201,2.863 19.6043,8.7937 l -11.6694,-2.674 c -0.0491,9.3672 -4.789,16.2365 -10.9459,15.8891 -5.5176,-0.3112 -9.4191,-6.3319 -8.8563,-14.2579 l -8.9837,3.833 c 5.4378,-7.0515 12.7238,-11.3101 20.851,-11.5839 z" fill="#141e24" opacity="0.1" id="path963"/>
        <path d="m 254.6283,184.8372 c 7.2022,-0.0643 13.8306,3.2357 18.6438,9.322 l -10.7879,-3.6706 c 0.5261,8.7599 -3.6034,15.4399 -9.482,15.4549 -5.3961,0.0138 -9.484,-5.6491 -9.2845,-13.3698 l -10.0637,3.9159 c 5.4532,-7.234 12.803,-11.5794 20.9743,-11.6524 z" fill="#141e24" opacity="0.1" id="path965"/>
        <path d="m 115.9439,225.5996 11.8185,-31.1578 c 1.2491,-3.293 3.5262,-5.372 6.4464,-5.372 h 42.9763 c -5.1326,-10.4154 -14.2267,-17.0373 -24.7114,-19.3393 -14.3379,-3.1481 -28.8031,1.6005 -37.6042,12.8929 -5.0957,6.5382 -7.6986,14.8429 -7.1544,23.2573 0.4627,7.1533 3.18,14.0867 8.2288,19.7189 z" fill="#141e24" opacity="0.5" id="path967"/>
        <path d="m 246.6863,225.9931 11.4566,-28.2047 c 1.398,-3.4419 3.7419,-5.6263 6.7409,-5.6175 l 40.2243,0.1173 c -4.2302,-10.9026 -13.1203,-17.8548 -23.5934,-20.2229 -16.0545,-3.6303 -31.705,3.0883 -39.3224,16.8524 -6.4558,11.6652 -5.1788,25.848 4.494,37.0754 z" fill="#141e24" opacity="0.5" id="path969"/>
      </g>
      <g id="g985">
        <path d="M 201.7084,411.7387 256.9096,271.702 c 10.5961,-26.8804 34.9981,-41.9157 65.7315,-41.9157 h 150.137 c 14.3935,0 19.7934,18.0046 12.3842,37.1526 l -52.3434,135.2735 c -2.3153,5.9837 -7.2625,9.5263 -13.5002,9.5263 z" fill="#8bbcc7" opacity="0.2" id="path973"/>
        <path d="M 212.9765,411.7387 268.1778,271.702 c 8.9938,-22.816 28.2179,-36.1999 52.3946,-36.1999 h 150.137 c 14.1952,0 20.7157,15.2513 14.4529,31.4368 l -52.3434,135.2735 c -2.3153,5.9837 -7.2625,9.5263 -13.5002,9.5263 z" fill="#8bbcc7" opacity="0.4" id="path975"/>
        <path d="M 224.4081,411.7387 279.6093,271.702 c 6.8646,-17.4144 21.5464,-27.6263 40.0105,-27.6263 h 150.1369 c 12.5999,0 19.9947,11.0031 15.4056,22.8632 l -52.3434,135.2735 c -2.3153,5.9837 -7.2625,9.5263 -13.5002,9.5263 z" fill="#ffffff" opacity="1" id="path977"/>
        <path d="m 283.1683,289.2809 c 9.0565,-22.4845 21.6552,-38.0549 39.0578,-38.1052 l 149.4359,-0.4316 c 11.4905,-0.0331 17.9239,10.5786 13.5003,21.9105 l -56.1539,143.8472 c -4.5535,11.6647 -20.6066,13.4119 -40.4733,13.4119 H 157.173 c -2.6379,0 -4.9421,-0.7516 -6.4323,-2.3664 -1.8497,-2.0044 -2.2898,-5.1761 -2.2592,-8.4484 0.0299,-3.1832 0.5004,-6.2749 2.2546,-8.4546 1.7063,-2.1201 4.4733,-3.2372 7.6376,-3.2372 h 77.2144 z" fill="#141e24" opacity="1" id="path979"/>
        <path d="m 384.3032,336.2227 c 4.0773,5.8445 10.8534,7.9564 18.4013,6.2858 -0.4472,2.1505 -1.4377,4.0874 -2.6054,5.902 -5.1741,8.0397 -13.0925,13.3432 -22.0809,14.1194 -5.8901,0.5086 -11.7676,-0.902 -16,-4.5683 -6.8369,-5.9223 -8.718,-16.1636 -5.0658,-25.4394 3.3649,-8.5462 11.1959,-14.7145 20.9283,-17.3913 2.476,-0.681 5.0324,-1.0943 7.6345,-0.83 -4.8686,7.4255 -5.7331,15.441 -1.212,21.9218 z" fill="#316e7d" opacity="1" id="path981"/>
        <path d="m 380.3595,338.7719 c 3.3318,4.9407 8.7418,7.7868 15.1724,8.0027 -4.3379,6.5224 -10.3733,10.9274 -17.0551,11.8025 -5.1124,0.6696 -10.243,-0.7567 -13.8357,-4.1034 -5.3272,-4.9626 -6.5943,-13.1579 -3.831,-20.646 2.7604,-7.4804 9.3298,-12.8871 18.0667,-14.6096 -2.6016,6.9919 -2.2717,13.9865 1.4827,19.5538 z" fill="#8bbcc7" opacity="1" id="path983"/>
      </g>
    </g>
    <g id="g1763">
      <g id="g1704" transform="matrix(1.1611622,0,0,1.1611622,-133.67749,-91.245773)">
        <ellipse style="fill:#ff0000;fill-opacity:0.0100405;stroke:#e96c4c;stroke-width:10;stroke-miterlimit:4;stroke-dasharray:none;stroke-opacity:1" id="path1357" cx="223.26111" cy="184.95389" rx="94.849693" ry="91.957321"/>
      </g>
      <rect style="fill:#e96c4c;fill-opacity:1;stroke:#e96c4c;stroke-width:0;stroke-miterlimit:4;stroke-dasharray:none;stroke-opacity:1" id="rect1234" width="14.069192" height="220.26485" x="5.0032196" y="64.136459" transform="rotate(-44.759007)"/>
    </g>
  </g>
</svg>